<svg width="670" height="190" viewBox="0 0 670 190" fill="none" xmlns="http://www.w3.org/2000/svg">
<path d="M201.084 4.8L178.332 72H173.148L152.316 11.712L131.388 72H126.204L103.356 4.8H108.54L128.988 65.28L150.012 4.8H154.716L175.644 65.376L196.284 4.8H201.084ZM252.153 48.096H209.049C209.177 52 210.169 55.488 212.025 58.56C213.881 61.568 216.377 63.904 219.513 65.568C222.713 67.232 226.297 68.064 230.265 68.064C233.529 68.064 236.537 67.488 239.289 66.336C242.105 65.12 244.441 63.36 246.297 61.056L249.081 64.224C246.905 66.848 244.153 68.864 240.825 70.272C237.561 71.68 234.009 72.384 230.169 72.384C225.177 72.384 220.729 71.296 216.825 69.12C212.921 66.944 209.849 63.936 207.609 60.096C205.433 56.256 204.345 51.872 204.345 46.944C204.345 42.08 205.369 37.728 207.417 33.888C209.529 29.984 212.409 26.944 216.057 24.768C219.705 22.592 223.801 21.504 228.345 21.504C232.889 21.504 236.953 22.592 240.537 24.768C244.185 26.88 247.033 29.856 249.081 33.696C251.193 37.536 252.249 41.888 252.249 46.752L252.153 48.096ZM228.345 25.728C224.825 25.728 221.657 26.528 218.841 28.128C216.025 29.664 213.753 31.872 212.025 34.752C210.361 37.568 209.401 40.768 209.145 44.352H247.545C247.353 40.768 246.393 37.568 244.665 34.752C242.937 31.936 240.665 29.728 237.849 28.128C235.033 26.528 231.865 25.728 228.345 25.728ZM267.098 0.767996H271.898V72H267.098V0.767996ZM312.001 72.384C307.137 72.384 302.785 71.296 298.945 69.12C295.105 66.944 292.097 63.936 289.921 60.096C287.745 56.192 286.657 51.808 286.657 46.944C286.657 42.016 287.745 37.632 289.921 33.792C292.097 29.888 295.105 26.88 298.945 24.768C302.785 22.592 307.137 21.504 312.001 21.504C316.033 21.504 319.681 22.304 322.945 23.904C326.273 25.44 328.961 27.712 331.009 30.72L327.457 33.312C325.665 30.816 323.425 28.96 320.737 27.744C318.113 26.464 315.201 25.824 312.001 25.824C308.097 25.824 304.577 26.72 301.441 28.512C298.369 30.24 295.937 32.704 294.145 35.904C292.417 39.104 291.553 42.784 291.553 46.944C291.553 51.104 292.417 54.784 294.145 57.984C295.937 61.184 298.369 63.68 301.441 65.472C304.577 67.2 308.097 68.064 312.001 68.064C315.201 68.064 318.113 67.456 320.737 66.24C323.425 64.96 325.665 63.072 327.457 60.576L331.009 63.168C328.961 66.176 326.273 68.48 322.945 70.08C319.681 71.616 316.033 72.384 312.001 72.384ZM364.119 72.384C359.383 72.384 355.095 71.296 351.255 69.12C347.479 66.944 344.503 63.936 342.327 60.096C340.151 56.192 339.063 51.808 339.063 46.944C339.063 42.08 340.151 37.728 342.327 33.888C344.503 29.984 347.479 26.944 351.255 24.768C355.095 22.592 359.383 21.504 364.119 21.504C368.855 21.504 373.111 22.592 376.887 24.768C380.727 26.944 383.735 29.984 385.911 33.888C388.087 37.728 389.175 42.08 389.175 46.944C389.175 51.808 388.087 56.192 385.911 60.096C383.735 63.936 380.727 66.944 376.887 69.12C373.111 71.296 368.855 72.384 364.119 72.384ZM364.119 68.064C367.959 68.064 371.383 67.168 374.391 65.376C377.463 63.584 379.863 61.088 381.591 57.888C383.383 54.688 384.279 51.04 384.279 46.944C384.279 42.848 383.383 39.2 381.591 36C379.863 32.8 377.463 30.304 374.391 28.512C371.383 26.72 367.959 25.824 364.119 25.824C360.279 25.824 356.823 26.72 353.751 28.512C350.743 30.304 348.343 32.8 346.551 36C344.823 39.2 343.959 42.848 343.959 46.944C343.959 51.04 344.823 54.688 346.551 57.888C348.343 61.088 350.743 63.584 353.751 65.376C356.823 67.168 360.279 68.064 364.119 68.064ZM466.467 21.504C472.675 21.504 477.539 23.328 481.059 26.976C484.643 30.624 486.435 35.872 486.435 42.72V72H481.635V43.104C481.635 37.472 480.259 33.184 477.507 30.24C474.755 27.296 470.915 25.824 465.987 25.824C460.355 25.824 455.875 27.584 452.547 31.104C449.283 34.624 447.651 39.36 447.651 45.312V72H442.851V43.104C442.851 37.472 441.475 33.184 438.723 30.24C435.971 27.296 432.131 25.824 427.203 25.824C421.571 25.824 417.091 27.584 413.763 31.104C410.499 34.624 408.867 39.36 408.867 45.312V72H404.067V21.888H408.675V32.64C410.339 29.12 412.803 26.4 416.067 24.48C419.395 22.496 423.331 21.504 427.875 21.504C432.419 21.504 436.259 22.528 439.395 24.576C442.595 26.624 444.867 29.632 446.211 33.6C447.875 29.888 450.467 26.944 453.987 24.768C457.571 22.592 461.731 21.504 466.467 21.504ZM548.684 48.096H505.58C505.708 52 506.7 55.488 508.556 58.56C510.412 61.568 512.908 63.904 516.044 65.568C519.244 67.232 522.828 68.064 526.796 68.064C530.06 68.064 533.068 67.488 535.82 66.336C538.636 65.12 540.972 63.36 542.828 61.056L545.612 64.224C543.436 66.848 540.684 68.864 537.356 70.272C534.092 71.68 530.54 72.384 526.7 72.384C521.708 72.384 517.26 71.296 513.356 69.12C509.452 66.944 506.38 63.936 504.14 60.096C501.964 56.256 500.876 51.872 500.876 46.944C500.876 42.08 501.9 37.728 503.948 33.888C506.06 29.984 508.94 26.944 512.588 24.768C516.236 22.592 520.332 21.504 524.876 21.504C529.42 21.504 533.484 22.592 537.068 24.768C540.716 26.88 543.564 29.856 545.612 33.696C547.724 37.536 548.78 41.888 548.78 46.752L548.684 48.096ZM524.876 25.728C521.356 25.728 518.188 26.528 515.372 28.128C512.556 29.664 510.284 31.872 508.556 34.752C506.892 37.568 505.932 40.768 505.676 44.352H544.076C543.884 40.768 542.924 37.568 541.196 34.752C539.468 31.936 537.196 29.728 534.38 28.128C531.564 26.528 528.396 25.728 524.876 25.728ZM613.149 68.832C611.933 69.984 610.397 70.88 608.541 71.52C606.749 72.096 604.861 72.384 602.877 72.384C598.525 72.384 595.165 71.2 592.797 68.832C590.429 66.4 589.245 63.04 589.245 58.752V26.016H580.029V21.888H589.245V10.944H594.045V21.888H609.981V26.016H594.045V58.272C594.045 61.536 594.813 64.032 596.349 65.76C597.949 67.424 600.285 68.256 603.357 68.256C606.493 68.256 609.085 67.328 611.133 65.472L613.149 68.832ZM644.338 72.384C639.602 72.384 635.314 71.296 631.474 69.12C627.698 66.944 624.722 63.936 622.546 60.096C620.37 56.192 619.282 51.808 619.282 46.944C619.282 42.08 620.37 37.728 622.546 33.888C624.722 29.984 627.698 26.944 631.474 24.768C635.314 22.592 639.602 21.504 644.338 21.504C649.074 21.504 653.33 22.592 657.106 24.768C660.946 26.944 663.954 29.984 666.13 33.888C668.306 37.728 669.394 42.08 669.394 46.944C669.394 51.808 668.306 56.192 666.13 60.096C663.954 63.936 660.946 66.944 657.106 69.12C653.33 71.296 649.074 72.384 644.338 72.384ZM644.338 68.064C648.178 68.064 651.602 67.168 654.61 65.376C657.682 63.584 660.082 61.088 661.81 57.888C663.602 54.688 664.498 51.04 664.498 46.944C664.498 42.848 663.602 39.2 661.81 36C660.082 32.8 657.682 30.304 654.61 28.512C651.602 26.72 648.178 25.824 644.338 25.824C640.498 25.824 637.042 26.72 633.97 28.512C630.962 30.304 628.562 32.8 626.77 36C625.042 39.2 624.178 42.848 624.178 46.944C624.178 51.04 625.042 54.688 626.77 57.888C628.562 61.088 630.962 63.584 633.97 65.376C637.042 67.168 640.498 68.064 644.338 68.064ZM446.66 121.8H479.78C487.268 121.8 493.86 123.176 499.556 125.928C505.316 128.616 509.764 132.488 512.9 137.544C516.1 142.6 517.7 148.552 517.7 155.4C517.7 162.248 516.1 168.2 512.9 173.256C509.764 178.312 505.316 182.216 499.556 184.968C493.86 187.656 487.268 189 479.78 189H446.66V121.8ZM478.82 171.336C483.684 171.336 487.556 169.96 490.436 167.208C493.38 164.392 494.852 160.456 494.852 155.4C494.852 150.344 493.38 146.44 490.436 143.688C487.556 140.872 483.684 139.464 478.82 139.464H469.316V171.336H478.82ZM581.172 162.696C581.172 163.016 581.076 164.712 580.884 167.784H544.404C545.172 169.768 546.452 171.304 548.244 172.392C550.036 173.416 552.276 173.928 554.964 173.928C557.268 173.928 559.188 173.64 560.724 173.064C562.324 172.488 564.052 171.496 565.908 170.088L577.236 181.512C572.116 187.144 564.468 189.96 554.292 189.96C547.956 189.96 542.388 188.808 537.588 186.504C532.788 184.136 529.076 180.872 526.452 176.712C523.828 172.552 522.516 167.88 522.516 162.696C522.516 157.448 523.796 152.776 526.356 148.68C528.98 144.52 532.532 141.288 537.012 138.984C541.556 136.68 546.644 135.528 552.276 135.528C557.588 135.528 562.42 136.584 566.772 138.696C571.188 140.808 574.676 143.912 577.236 148.008C579.86 152.104 581.172 157 581.172 162.696ZM552.468 150.312C550.228 150.312 548.372 150.92 546.9 152.136C545.428 153.352 544.468 155.08 544.02 157.32H560.916C560.468 155.144 559.508 153.448 558.036 152.232C556.564 150.952 554.708 150.312 552.468 150.312ZM610.133 135.528C619.349 135.528 626.389 137.608 631.253 141.768C636.117 145.864 638.549 152.2 638.549 160.776V189H618.389V182.088C615.893 187.336 610.933 189.96 603.509 189.96C599.349 189.96 595.797 189.256 592.853 187.848C589.973 186.376 587.765 184.424 586.229 181.992C584.757 179.496 584.021 176.712 584.021 173.64C584.021 168.456 586.005 164.52 589.973 161.832C593.941 159.144 599.957 157.8 608.021 157.8H616.757C616.053 153.704 612.757 151.656 606.869 151.656C604.501 151.656 602.101 152.04 599.669 152.808C597.237 153.512 595.157 154.504 593.429 155.784L586.517 141.48C589.525 139.624 593.141 138.184 597.365 137.16C601.653 136.072 605.909 135.528 610.133 135.528ZM610.036 176.904C611.573 176.904 612.949 176.488 614.165 175.656C615.381 174.824 616.277 173.576 616.853 171.912V168.264H611.477C607.061 168.264 604.853 169.736 604.853 172.68C604.853 173.896 605.301 174.92 606.197 175.752C607.157 176.52 608.437 176.904 610.036 176.904ZM647.925 117.768H669.621V189H647.925V117.768Z" fill="black"/>
<path d="M20.6265 139.368H0.9465V121.8H62.9625V139.368H43.2825V189H20.6265V139.368ZM85.344 189.96C80.864 189.96 76.448 189.48 72.096 188.52C67.744 187.56 64.224 186.312 61.536 184.776L67.488 170.472C69.92 171.944 72.8 173.096 76.128 173.928C79.456 174.76 82.688 175.176 85.824 175.176C88.32 175.176 90.048 174.984 91.008 174.6C92.032 174.152 92.544 173.512 92.544 172.68C92.544 171.848 91.904 171.272 90.624 170.952C89.408 170.632 87.392 170.312 84.576 169.992C80.288 169.48 76.64 168.84 73.632 168.072C70.624 167.24 67.968 165.672 65.664 163.368C63.424 161.064 62.304 157.768 62.304 153.48C62.304 150.088 63.328 147.048 65.376 144.36C67.424 141.672 70.464 139.528 74.496 137.928C78.592 136.328 83.488 135.528 89.184 135.528C93.152 135.528 97.024 135.912 100.8 136.68C104.64 137.384 107.904 138.44 110.592 139.848L104.64 154.152C100.032 151.592 94.976 150.312 89.472 150.312C84.736 150.312 82.368 151.144 82.368 152.808C82.368 153.64 83.008 154.248 84.288 154.632C85.568 154.952 87.584 155.272 90.336 155.592C94.624 156.104 98.24 156.776 101.184 157.608C104.192 158.44 106.816 160.008 109.056 162.312C111.36 164.616 112.512 167.912 112.512 172.2C112.512 175.464 111.488 178.44 109.44 181.128C107.392 183.816 104.32 185.96 100.224 187.56C96.128 189.16 91.168 189.96 85.344 189.96ZM176.489 136.488V189H155.849V184.008C153.929 185.992 151.689 187.496 149.129 188.52C146.569 189.48 143.849 189.96 140.969 189.96C134.313 189.96 128.969 187.944 124.937 183.912C120.905 179.816 118.889 173.672 118.889 165.48V136.488H140.585V161.736C140.585 165.32 141.161 167.88 142.313 169.416C143.465 170.952 145.161 171.72 147.401 171.72C149.513 171.72 151.273 170.888 152.681 169.224C154.089 167.496 154.793 164.808 154.793 161.16V136.488H176.489ZM222.593 135.528C229.057 135.528 234.241 137.48 238.145 141.384C242.113 145.288 244.097 151.176 244.097 159.048V189H222.401V162.792C222.401 156.776 220.257 153.768 215.969 153.768C213.537 153.768 211.553 154.632 210.017 156.36C208.545 158.024 207.809 160.68 207.809 164.328V189H186.113V136.488H206.753V141.672C208.801 139.624 211.169 138.088 213.857 137.064C216.545 136.04 219.457 135.528 222.593 135.528ZM277.039 135.528C286.255 135.528 293.295 137.608 298.159 141.768C303.023 145.864 305.455 152.2 305.455 160.776V189H285.295V182.088C282.799 187.336 277.839 189.96 270.415 189.96C266.255 189.96 262.703 189.256 259.759 187.848C256.879 186.376 254.671 184.424 253.135 181.992C251.663 179.496 250.927 176.712 250.927 173.64C250.927 168.456 252.911 164.52 256.879 161.832C260.847 159.144 266.863 157.8 274.927 157.8H283.663C282.959 153.704 279.663 151.656 273.775 151.656C271.407 151.656 269.007 152.04 266.575 152.808C264.143 153.512 262.063 154.504 260.335 155.784L253.423 141.48C256.431 139.624 260.047 138.184 264.271 137.16C268.559 136.072 272.815 135.528 277.039 135.528ZM276.943 176.904C278.479 176.904 279.855 176.488 281.071 175.656C282.287 174.824 283.183 173.576 283.759 171.912V168.264H278.383C273.967 168.264 271.759 169.736 271.759 172.68C271.759 173.896 272.207 174.92 273.103 175.752C274.063 176.52 275.343 176.904 276.943 176.904ZM384.335 135.528C390.671 135.528 395.727 137.48 399.503 141.384C403.343 145.288 405.263 151.176 405.263 159.048V189H383.567V162.792C383.567 156.776 381.615 153.768 377.711 153.768C375.663 153.768 373.999 154.536 372.719 156.072C371.503 157.608 370.895 160.04 370.895 163.368V189H349.199V162.792C349.199 156.776 347.247 153.768 343.343 153.768C341.295 153.768 339.631 154.536 338.351 156.072C337.135 157.608 336.527 160.04 336.527 163.368V189H314.831V136.488H335.471V141.384C339.375 137.48 344.335 135.528 350.351 135.528C353.871 135.528 357.039 136.2 359.855 137.544C362.671 138.824 364.975 140.808 366.767 143.496C368.879 140.936 371.439 138.984 374.447 137.64C377.455 136.232 380.751 135.528 384.335 135.528ZM414.675 136.488H436.371V189H414.675V136.488ZM425.523 132.264C421.619 132.264 418.451 131.24 416.019 129.192C413.651 127.08 412.467 124.424 412.467 121.224C412.467 118.024 413.651 115.4 416.019 113.352C418.451 111.24 421.619 110.184 425.523 110.184C429.491 110.184 432.659 111.176 435.027 113.16C437.395 115.144 438.579 117.704 438.579 120.84C438.579 124.168 437.395 126.92 435.027 129.096C432.659 131.208 429.491 132.264 425.523 132.264Z" fill="#4A5759"/>
</svg>
